<svg width="215" height="77" viewBox="0 0 215 77" fill="none" xmlns="http://www.w3.org/2000/svg">
<rect width="215" height="77" fill="#1E1E1E"/>
<path d="M3.42 20.564L3.216 20.496V12.88C4.848 12.336 6.59333 11.9053 8.452 11.588C10.356 11.2707 12.3507 11.112 14.436 11.112C18.924 11.112 22.0747 11.996 23.888 13.764C25.7467 15.4867 26.676 17.844 26.676 20.836C26.676 23.6467 26.0867 25.868 24.908 27.5C23.7293 29.0867 21.5533 30.0613 18.38 30.424V30.696C19.9667 30.7867 21.304 31.104 22.392 31.648C23.48 32.192 24.364 32.8947 25.044 33.756H35.312V19H31.232V11.724H52.176V19H45.376V52.388H35.312V41.576H26.812C26.5853 44.2053 25.4747 46.336 23.48 47.968C21.5307 49.6 18.312 50.484 13.824 50.62C11.24 50.6653 8.70133 50.484 6.208 50.076C3.76 49.668 1.81067 49.1013 0.36 48.376V40.08H0.7C2.468 40.8053 4.21333 41.3267 5.936 41.644C7.704 41.9613 9.54 42.12 11.444 42.12C13.484 42.12 14.9347 41.848 15.796 41.304C16.6573 40.76 17.088 39.7627 17.088 38.312C17.088 36.952 16.7027 36 15.932 35.456C15.1613 34.912 13.892 34.64 12.124 34.64H7.024V26.48H11.376C13.5067 26.48 14.98 26.2307 15.796 25.732C16.6573 25.188 17.088 24.2587 17.088 22.944C17.088 21.7653 16.7027 20.8813 15.932 20.292C15.2067 19.7027 13.7787 19.408 11.648 19.408C10.288 19.408 8.88267 19.5213 7.432 19.748C5.98133 19.9293 4.644 20.2013 3.42 20.564ZM55.8607 52.388C54.5461 49.94 53.5261 47.424 52.8007 44.84C52.0754 42.2107 51.7127 39.5813 51.7127 36.952C51.7127 32.5093 52.7781 29.3133 54.9087 27.364C57.0394 25.4147 60.1674 24.44 64.2927 24.44C67.8741 24.44 70.5034 25.0293 72.1807 26.208C73.9034 27.3413 74.9234 28.8827 75.2407 30.832H75.4447C75.8074 28.8827 76.6461 27.3413 77.9607 26.208C79.2754 25.0747 81.3834 24.508 84.2847 24.508C86.4607 24.508 88.0701 25.0973 89.1127 26.276L89.2487 26.14V19H48.7887V11.724H106.181V19H99.3807V52.388H89.2487V37.904C89.1127 35.9093 88.6821 34.5947 87.9567 33.96C87.2767 33.3253 86.2341 33.008 84.8287 33.008C83.1061 33.008 81.9047 33.4387 81.2247 34.3C80.5447 35.1613 80.2047 37.02 80.2047 39.876V44.432H71.2287V39.876C71.2287 37.1107 70.8434 35.2747 70.0727 34.368C69.3474 33.4613 68.1914 33.008 66.6047 33.008C64.8367 33.008 63.5901 33.484 62.8647 34.436C62.1394 35.3427 61.7767 36.9293 61.7767 39.196C61.7767 41.4173 62.0714 43.5707 62.6607 45.656C63.2501 47.696 64.2021 49.8267 65.5167 52.048V52.388H55.8607ZM99.581 0.503997C99.6717 1.22933 99.7397 1.88666 99.785 2.476C99.785 3.02 99.785 3.564 99.785 4.10799C99.785 5.06 99.717 6.26133 99.581 7.712C98.7197 7.89333 97.8584 8.02933 96.997 8.12C96.1357 8.21066 95.2744 8.25599 94.413 8.25599C93.597 8.25599 92.781 8.21066 91.965 8.12C91.149 8.02933 90.3104 7.89333 89.449 7.712C89.3584 7.03199 89.2904 6.41999 89.245 5.876C89.1997 5.28666 89.177 4.71999 89.177 4.17599C89.177 3.67733 89.1997 3.13333 89.245 2.54399C89.2904 1.90933 89.3584 1.22933 89.449 0.503997C90.3104 0.322663 91.1717 0.20933 92.033 0.163997C92.849 0.073329 93.6877 0.0279949 94.549 0.0279949C95.365 0.0279949 96.2037 0.073329 97.065 0.163997C97.881 0.20933 98.7197 0.322663 99.581 0.503997ZM129.705 52.388V47.084H129.569C128.572 47.5827 127.189 47.9907 125.421 48.308C123.653 48.6253 121.794 48.784 119.845 48.784C115.992 48.784 112.977 48.3987 110.801 47.628C108.625 46.812 107.084 45.4747 106.177 43.616C105.27 41.7573 104.817 39.2187 104.817 36C104.817 32.8267 105.202 30.3333 105.973 28.52C106.744 26.6613 107.99 25.3467 109.713 24.576C111.436 23.76 113.725 23.352 116.581 23.352C118.168 23.352 119.777 23.4653 121.409 23.692C123.041 23.8733 124.492 24.1453 125.761 24.508L125.625 32.26L125.353 32.328C124.582 32.1013 123.721 31.92 122.769 31.784C121.817 31.648 120.729 31.58 119.505 31.58C117.42 31.58 116.037 31.92 115.357 32.6C114.677 33.2347 114.337 34.4133 114.337 36.136C114.337 37.2693 114.496 38.176 114.813 38.856C115.13 39.4907 115.788 39.9667 116.785 40.284C117.782 40.556 119.301 40.692 121.341 40.692C124.65 40.692 127.438 40.1707 129.705 39.128V19H101.757V11.724H167.717V19H139.769V25.188H139.905C140.948 24.6893 142.33 24.2813 144.053 23.964C145.821 23.6467 147.68 23.488 149.629 23.488C153.482 23.488 156.497 23.896 158.673 24.712C160.849 25.4827 162.39 26.7973 163.297 28.656C164.204 30.5147 164.657 33.0533 164.657 36.272C164.657 39.4453 164.272 41.9613 163.501 43.82C162.73 45.6333 161.484 46.948 159.761 47.764C158.084 48.5347 155.794 48.92 152.893 48.92C151.306 48.92 149.697 48.8293 148.065 48.648C146.433 48.4213 144.982 48.1267 143.713 47.764L143.849 40.012L144.121 39.944C144.892 40.1253 145.753 40.3067 146.705 40.488C147.657 40.624 148.745 40.692 149.969 40.692C152.1 40.692 153.482 40.352 154.117 39.672C154.797 38.992 155.137 37.8133 155.137 36.136C155.137 35.0027 154.978 34.1187 154.661 33.484C154.344 32.804 153.686 32.328 152.689 32.056C151.692 31.7387 150.173 31.58 148.133 31.58C144.824 31.58 142.036 32.1013 139.769 33.144V52.388H129.705ZM170.092 52.388V19H163.292V11.724H186.956V19H180.156V52.388H170.092ZM198.963 52.592L186.179 38.652V30.764H189.715C192.027 30.764 194.022 30.4013 195.699 29.676C197.376 28.9507 198.215 27.6813 198.215 25.868V19H182.167V11.724H214.875V19H208.075V27.024C208.075 30.4693 206.964 33.008 204.743 34.64C202.522 36.272 199.734 37.088 196.379 37.088C196.107 37.088 195.835 37.0653 195.563 37.02V37.292C197.966 38.8787 200.436 40.9413 202.975 43.48C205.514 45.9733 208.098 48.8973 210.727 52.252V52.592H198.963Z" fill="#800000"/>
<path d="M48.116 76V60.889H56.695V62.338H49.818V67.674H55.637V69.1H49.818V76H48.116ZM63.5774 76L68.7524 60.889H70.6384L75.7904 76H73.9964L71.2594 67.444C70.9834 66.5853 70.7151 65.742 70.4544 64.914C70.2091 64.0707 69.9561 63.2043 69.6954 62.315H69.6034C69.3734 63.2043 69.1281 64.0707 68.8674 64.914C68.6221 65.742 68.3537 66.5853 68.0624 67.444L65.3024 76H63.5774ZM66.1994 71.239V69.882H73.1224V71.239H66.1994ZM88.3268 76.276C87.2688 76.276 86.2952 76.069 85.4058 75.655C84.5165 75.241 83.7422 74.6967 83.0828 74.022L84.1178 72.849C84.6698 73.4317 85.3062 73.8993 86.0268 74.252C86.7628 74.6047 87.5372 74.781 88.3498 74.781C89.3925 74.781 90.2052 74.5433 90.7878 74.068C91.3705 73.5773 91.6618 72.941 91.6618 72.159C91.6618 71.6223 91.5468 71.193 91.3168 70.871C91.0868 70.5337 90.7802 70.2577 90.3968 70.043C90.0135 69.813 89.5765 69.5907 89.0858 69.376L86.9008 68.41C86.4408 68.2107 85.9732 67.95 85.4978 67.628C85.0225 67.306 84.6238 66.8997 84.3018 66.409C83.9952 65.9183 83.8418 65.2973 83.8418 64.546C83.8418 63.7947 84.0412 63.1277 84.4398 62.545C84.8385 61.947 85.3905 61.4793 86.0958 61.142C86.8012 60.7893 87.5985 60.613 88.4878 60.613C89.3925 60.613 90.2205 60.7893 90.9718 61.142C91.7385 61.4947 92.3748 61.9393 92.8808 62.476L91.9608 63.58C91.5162 63.12 91.0025 62.7597 90.4198 62.499C89.8525 62.2383 89.2085 62.108 88.4878 62.108C87.6138 62.108 86.9008 62.3227 86.3488 62.752C85.8122 63.166 85.5438 63.7333 85.5438 64.454C85.5438 64.96 85.6742 65.374 85.9348 65.696C86.1955 66.018 86.5175 66.2863 86.9008 66.501C87.2995 66.7003 87.6905 66.8843 88.0738 67.053L90.2588 68.019C90.8568 68.2643 91.3858 68.5557 91.8458 68.893C92.3058 69.2303 92.6738 69.652 92.9498 70.158C93.2412 70.664 93.3868 71.2927 93.3868 72.044C93.3868 72.826 93.1798 73.539 92.7658 74.183C92.3672 74.827 91.7845 75.3407 91.0178 75.724C90.2665 76.092 89.3695 76.276 88.3268 76.276ZM102.616 76V60.889H104.318V67.283H111.609V60.889H113.311V76H111.609V68.778H104.318V76H102.616ZM123.74 76V60.889H125.442V76H123.74ZM141.354 76.276C140.097 76.276 138.985 75.954 138.019 75.31C137.053 74.666 136.294 73.7537 135.742 72.573C135.206 71.3923 134.937 69.997 134.937 68.387C134.937 66.777 135.206 65.397 135.742 64.247C136.294 63.0817 137.053 62.1847 138.019 61.556C138.985 60.9273 140.097 60.613 141.354 60.613C142.596 60.613 143.7 60.9273 144.666 61.556C145.632 62.1847 146.384 63.0817 146.92 64.247C147.472 65.397 147.748 66.777 147.748 68.387C147.748 69.997 147.472 71.3923 146.92 72.573C146.384 73.7537 145.632 74.666 144.666 75.31C143.7 75.954 142.596 76.276 141.354 76.276ZM141.354 74.781C142.274 74.781 143.079 74.5203 143.769 73.999C144.475 73.4623 145.019 72.7187 145.402 71.768C145.786 70.802 145.977 69.675 145.977 68.387C145.977 67.099 145.786 65.9873 145.402 65.052C145.019 64.1167 144.475 63.396 143.769 62.89C143.079 62.3687 142.274 62.108 141.354 62.108C140.419 62.108 139.599 62.3687 138.893 62.89C138.203 63.396 137.667 64.1167 137.283 65.052C136.9 65.9873 136.708 67.099 136.708 68.387C136.708 69.675 136.9 70.802 137.283 71.768C137.667 72.7187 138.203 73.4623 138.893 73.999C139.599 74.5203 140.419 74.781 141.354 74.781ZM157.273 76V60.889H159.021L164.725 70.687L166.381 73.792H166.473C166.427 73.0253 166.374 72.2433 166.312 71.446C166.266 70.6333 166.243 69.8437 166.243 69.077V60.889H167.853V76H166.105L160.401 66.202L158.745 63.097H158.653C158.715 63.8483 158.768 64.615 158.814 65.397C158.86 66.1637 158.883 66.938 158.883 67.72V76H157.273Z" fill="#800000"/>
</svg>
